<svg width="32" height="32" viewBox="0 0 32 32" fill="none" xmlns="http://www.w3.org/2000/svg">
  <!-- TV Screen Background -->
  <rect x="2" y="4" width="28" height="20" rx="3" fill="#1a1a2e" stroke="#0f3460" stroke-width="1"/>
  
  <!-- Static/Noise Pattern -->
  <rect x="4" y="6" width="2" height="2" fill="#00ff88" opacity="0.8"/>
  <rect x="8" y="6" width="2" height="2" fill="#ffffff" opacity="0.6"/>
  <rect x="12" y="6" width="2" height="2" fill="#ff0066" opacity="0.7"/>
  <rect x="16" y="6" width="2" height="2" fill="#00aaff" opacity="0.8"/>
  <rect x="20" y="6" width="2" height="2" fill="#ffff00" opacity="0.9"/>
  <rect x="24" y="6" width="2" height="2" fill="#ff8800" opacity="0.7"/>
  
  <rect x="6" y="8" width="2" height="2" fill="#ff0066" opacity="0.6"/>
  <rect x="10" y="8" width="2" height="2" fill="#00aaff" opacity="0.8"/>
  <rect x="14" y="8" width="2" height="2" fill="#ffffff" opacity="0.7"/>
  <rect x="18" y="8" width="2" height="2" fill="#00ff88" opacity="0.9"/>
  <rect x="22" y="8" width="2" height="2" fill="#ffff00" opacity="0.6"/>
  <rect x="26" y="8" width="2" height="2" fill="#ff8800" opacity="0.8"/>
  
  <rect x="4" y="10" width="2" height="2" fill="#ffff00" opacity="0.7"/>
  <rect x="8" y="10" width="2" height="2" fill="#ff0066" opacity="0.8"/>
  <rect x="12" y="10" width="2" height="2" fill="#00aaff" opacity="0.6"/>
  <rect x="16" y="10" width="2" height="2" fill="#ffffff" opacity="0.9"/>
  <rect x="20" y="10" width="2" height="2" fill="#00ff88" opacity="0.7"/>
  <rect x="24" y="10" width="2" height="2" fill="#ff8800" opacity="0.8"/>
  
  <rect x="6" y="12" width="2" height="2" fill="#00aaff" opacity="0.8"/>
  <rect x="10" y="12" width="2" height="2" fill="#ffff00" opacity="0.6"/>
  <rect x="14" y="12" width="2" height="2" fill="#ff0066" opacity="0.9"/>
  <rect x="18" y="12" width="2" height="2" fill="#ffffff" opacity="0.7"/>
  <rect x="22" y="12" width="2" height="2" fill="#ff8800" opacity="0.8"/>
  <rect x="26" y="12" width="2" height="2" fill="#00ff88" opacity="0.6"/>
  
  <rect x="4" y="14" width="2" height="2" fill="#ff8800" opacity="0.7"/>
  <rect x="8" y="14" width="2" height="2" fill="#00ff88" opacity="0.8"/>
  <rect x="12" y="14" width="2" height="2" fill="#ffffff" opacity="0.6"/>
  <rect x="16" y="14" width="2" height="2" fill="#ffff00" opacity="0.9"/>
  <rect x="20" y="14" width="2" height="2" fill="#ff0066" opacity="0.7"/>
  <rect x="24" y="14" width="2" height="2" fill="#00aaff" opacity="0.8"/>
  
  <rect x="6" y="16" width="2" height="2" fill="#ffffff" opacity="0.8"/>
  <rect x="10" y="16" width="2" height="2" fill="#ff8800" opacity="0.6"/>
  <rect x="14" y="16" width="2" height="2" fill="#00ff88" opacity="0.9"/>
  <rect x="18" y="16" width="2" height="2" fill="#00aaff" opacity="0.7"/>
  <rect x="22" y="16" width="2" height="2" fill="#ffff00" opacity="0.8"/>
  <rect x="26" y="16" width="2" height="2" fill="#ff0066" opacity="0.6"/>
  
  <rect x="4" y="18" width="2" height="2" fill="#00aaff" opacity="0.8"/>
  <rect x="8" y="18" width="2" height="2" fill="#ffff00" opacity="0.7"/>
  <rect x="12" y="18" width="2" height="2" fill="#ff8800" opacity="0.6"/>
  <rect x="16" y="18" width="2" height="2" fill="#00ff88" opacity="0.9"/>
  <rect x="20" y="18" width="2" height="2" fill="#ffffff" opacity="0.8"/>
  <rect x="24" y="18" width="2" height="2" fill="#ff0066" opacity="0.7"/>
  
  <rect x="6" y="20" width="2" height="2" fill="#ff0066" opacity="0.8"/>
  <rect x="10" y="20" width="2" height="2" fill="#00aaff" opacity="0.6"/>
  <rect x="14" y="20" width="2" height="2" fill="#ffff00" opacity="0.7"/>
  <rect x="18" y="20" width="2" height="2" fill="#ff8800" opacity="0.9"/>
  <rect x="22" y="20" width="2" height="2" fill="#00ff88" opacity="0.6"/>
  <rect x="26" y="20" width="2" height="2" fill="#ffffff" opacity="0.8"/>
  
  <!-- TV Stand/Base -->
  <rect x="13" y="24" width="6" height="2" rx="1" fill="#333333"/>
  <rect x="10" y="26" width="12" height="3" rx="1.5" fill="#2a2a2a"/>
  
  <!-- Screen Border/Bezel -->
  <rect x="2" y="4" width="28" height="20" rx="3" fill="none" stroke="#555555" stroke-width="1"/>
  
  <!-- Power LED -->
  <circle cx="28" cy="26" r="1.5" fill="#00ff88" opacity="0.9"/>
</svg>